<svg xmlns="http://www.w3.org/2000/svg" viewBox="0 0 1090.14 603.95"><defs><style>.cls-1{fill:#f1f9f8;}.cls-2{fill:#b9e5de;}.cls-3{fill:#cbe3f5;}.cls-4{fill:#ffd5d2;}.cls-5,.cls-7{fill:none;}.cls-5{stroke:#25302e;stroke-miterlimit:10;}.cls-6{fill:#2c302f;}</style></defs><g id="Layer_2" data-name="Layer 2"><g id="Secure_SDLC" data-name="Secure SDLC"><path class="cls-1" d="M915.94,364.67c45-88-11.53-168.3-100.57-157.56-39.42,3.38-76.91,19-116.1,24.57-30.16,4.28-60.85,2.53-91.31.56-65.49-2.24-132.79-14.65-197.57-1.39C395.7,234.7,381.66,240.9,367,244.7c-26.39,6.83-54,5.79-81.13,8.46-44.79,2.16-127.45,51.23-127.45,136,0,82.09,49,127.53,137.93,108.84,106.27-22.33,180.7,28.76,283.82-6,31.2-10.53,100.87-38.11,133.56-41.39C782.34,443.71,878.44,426.32,915.94,364.67Z"/><rect class="cls-2" x="339.84" y="282.35" width="177.77" height="91.46" rx="5"/><rect class="cls-2" x="517.6" y="282.35" width="177.77" height="91.46" rx="5"/><rect class="cls-2" x="339.84" y="190.89" width="177.77" height="91.46" rx="5"/><rect class="cls-3" x="517.6" y="190.89" width="177.77" height="91.46" rx="5"/><rect class="cls-4" x="695.37" y="190.89" width="177.77" height="91.46" rx="5"/><rect class="cls-4" x="517.6" y="99.43" width="177.77" height="91.46" rx="5"/><rect class="cls-4" x="695.37" y="99.43" width="177.77" height="91.46" rx="5"/><rect class="cls-5" x="695.37" y="99.43" width="177.77" height="91.46" rx="5"/><rect class="cls-5" x="339.84" y="282.35" width="177.77" height="91.46" rx="5"/><rect class="cls-5" x="339.84" y="190.89" width="177.77" height="91.46" rx="5"/><rect class="cls-3" x="695.37" y="282.35" width="177.77" height="91.46" rx="5"/><rect class="cls-3" x="339.84" y="99.43" width="177.77" height="91.46" rx="5"/><path class="cls-6" d="M389,137.76h3.14l2.79,7.69c.33,1,.67,2,1,3.07H396c.34-1,.65-2.09,1-3.07l2.71-7.69h3.17v15.7h-2.57v-7.17c0-1.47.21-3.56.36-5h-.1l-1.27,3.65L396.74,152h-1.65l-2.6-7.06-1.24-3.65h-.1c.12,1.44.36,3.53.36,5v7.17H389Z"/><path class="cls-6" d="M405.86,147.58c0-3.84,2.67-6.19,5.43-6.19,3.19,0,4.87,2.3,4.87,5.59a6.64,6.64,0,0,1-.12,1.35h-7.49a3.37,3.37,0,0,0,3.48,3.28,5,5,0,0,0,2.74-.86l.93,1.73a7.46,7.46,0,0,1-4,1.27C408.41,153.75,405.86,151.47,405.86,147.58Zm7.9-1.13c0-1.82-.79-2.92-2.4-2.92-1.39,0-2.59,1-2.83,2.92Z"/><path class="cls-6" d="M418.08,147.58c0-3.84,2.42-6.19,5-6.19a4.38,4.38,0,0,1,3.1,1.29l-.1-1.89v-4.27h2.76v16.94h-2.28l-.19-1.27h-.1a4.91,4.91,0,0,1-3.33,1.56C420,153.75,418.08,151.47,418.08,147.58Zm8,2.57v-5.5a3.52,3.52,0,0,0-2.4-1c-1.51,0-2.74,1.42-2.74,3.89s1,3.91,2.67,3.91A3.18,3.18,0,0,0,426.07,150.15Z"/><path class="cls-6" d="M432,138.05a1.71,1.71,0,1,1,1.7,1.56A1.58,1.58,0,0,1,432,138.05Zm.31,3.63h2.76v11.78h-2.76Z"/><path class="cls-6" d="M438.5,149.07v-7.39h2.76v7c0,1.94.55,2.66,1.83,2.66,1,0,1.72-.48,2.61-1.63v-8.06h2.76v11.78h-2.25l-.22-1.73h-.07a4.8,4.8,0,0,1-3.79,2C439.61,153.75,438.5,152.05,438.5,149.07Z"/><path class="cls-6" d="M452,141.68h2.28l.2,1.61h.09a5,5,0,0,1,3.6-1.9,3.21,3.21,0,0,1,3.27,2.11c1.13-1.2,2.3-2.11,3.79-2.11,2.5,0,3.65,1.7,3.65,4.68v7.39h-2.79v-7c0-1.94-.57-2.67-1.8-2.67a3.69,3.69,0,0,0-2.47,1.47v8.23H459v-7c0-1.94-.57-2.67-1.82-2.67a3.77,3.77,0,0,0-2.48,1.47v8.23H452Z"/><path class="cls-6" d="M566.75,229.22h3.15l2.78,7.68c.34,1,.68,2,1,3.08h.1c.33-1,.65-2.09,1-3.08l2.71-7.68h3.17v15.7h-2.57v-7.18c0-1.46.22-3.55.36-5h-.09l-1.27,3.65-2.57,7.06h-1.66l-2.59-7.06L569,232.75h-.1c.12,1.44.36,3.53.36,5v7.18h-2.52Z"/><path class="cls-6" d="M583.63,239c0-3.84,2.66-6.19,5.42-6.19,3.19,0,4.87,2.3,4.87,5.59a5.83,5.83,0,0,1-.12,1.34h-7.49a3.38,3.38,0,0,0,3.49,3.29,4.93,4.93,0,0,0,2.73-.86l.94,1.73a7.49,7.49,0,0,1-4,1.27C586.17,245.21,583.63,242.93,583.63,239Zm7.89-1.13c0-1.82-.79-2.93-2.4-2.93-1.39,0-2.59,1-2.83,2.93Z"/><path class="cls-6" d="M595.84,239c0-3.84,2.43-6.19,5-6.19a4.35,4.35,0,0,1,3.1,1.29l-.1-1.89V228h2.76v16.94h-2.28l-.19-1.27H604a5,5,0,0,1-3.34,1.56C597.74,245.21,595.84,242.93,595.84,239Zm8,2.57v-5.5a3.48,3.48,0,0,0-2.4-1c-1.51,0-2.73,1.41-2.73,3.89s1,3.91,2.66,3.91A3.18,3.18,0,0,0,603.83,241.61Z"/><path class="cls-6" d="M609.79,229.51a1.71,1.71,0,1,1,1.7,1.56A1.58,1.58,0,0,1,609.79,229.51Zm.31,3.63h2.76v11.78H610.1Z"/><path class="cls-6" d="M616.27,240.53v-7.39H619v7c0,1.94.55,2.66,1.82,2.66,1,0,1.73-.48,2.62-1.63v-8.06h2.76v11.78H624l-.22-1.73h-.07a4.78,4.78,0,0,1-3.79,2C617.37,245.21,616.27,243.51,616.27,240.53Z"/><path class="cls-6" d="M629.73,233.14H632l.19,1.6h.1a5,5,0,0,1,3.6-1.89,3.2,3.2,0,0,1,3.26,2.11c1.13-1.2,2.31-2.11,3.8-2.11,2.49,0,3.64,1.7,3.64,4.68v7.39h-2.78v-7c0-1.95-.58-2.67-1.8-2.67a3.65,3.65,0,0,0-2.47,1.47v8.23h-2.76v-7c0-1.95-.58-2.67-1.83-2.67a3.69,3.69,0,0,0-2.47,1.47v8.23h-2.76Z"/><path class="cls-6" d="M566.75,391.87h3.15l2.78,7.68c.34,1,.68,2,1,3.08h.1c.33-1,.65-2.09,1-3.08l2.71-7.68h3.17v15.7h-2.57v-7.18c0-1.46.22-3.55.36-5h-.09l-1.27,3.65-2.57,7.06h-1.66l-2.59-7.06L569,395.4h-.1c.12,1.44.36,3.53.36,5v7.18h-2.52Z"/><path class="cls-6" d="M583.63,401.69c0-3.84,2.66-6.19,5.42-6.19,3.19,0,4.87,2.3,4.87,5.59a5.83,5.83,0,0,1-.12,1.34h-7.49a3.38,3.38,0,0,0,3.49,3.29,4.93,4.93,0,0,0,2.73-.86l.94,1.73a7.49,7.49,0,0,1-4,1.27C586.17,407.86,583.63,405.58,583.63,401.69Zm7.89-1.13c0-1.82-.79-2.93-2.4-2.93-1.39,0-2.59,1-2.83,2.93Z"/><path class="cls-6" d="M595.84,401.69c0-3.84,2.43-6.19,5-6.19a4.35,4.35,0,0,1,3.1,1.29l-.1-1.89v-4.27h2.76v16.94h-2.28l-.19-1.27H604a5,5,0,0,1-3.34,1.56C597.74,407.86,595.84,405.58,595.84,401.69Zm8,2.57v-5.5a3.48,3.48,0,0,0-2.4-1c-1.51,0-2.73,1.41-2.73,3.89s1,3.91,2.66,3.91A3.18,3.18,0,0,0,603.83,404.26Z"/><path class="cls-6" d="M609.79,392.16a1.71,1.71,0,1,1,1.7,1.56A1.58,1.58,0,0,1,609.79,392.16Zm.31,3.63h2.76v11.78H610.1Z"/><path class="cls-6" d="M616.27,403.18v-7.39H619v7c0,1.94.55,2.66,1.82,2.66,1,0,1.73-.48,2.62-1.63v-8.06h2.76v11.78H624l-.22-1.73h-.07a4.78,4.78,0,0,1-3.79,2C617.37,407.86,616.27,406.16,616.27,403.18Z"/><path class="cls-6" d="M629.73,395.79H632l.19,1.6h.1a5,5,0,0,1,3.6-1.89,3.2,3.2,0,0,1,3.26,2.11c1.13-1.2,2.31-2.11,3.8-2.11,2.49,0,3.64,1.7,3.64,4.68v7.39h-2.78v-7c0-2-.58-2.67-1.8-2.67a3.65,3.65,0,0,0-2.47,1.47v8.23h-2.76v-7c0-2-.58-2.67-1.83-2.67a3.69,3.69,0,0,0-2.47,1.47v8.23h-2.76Z"/><path class="cls-6" d="M241.07,229.22h3.14L247,236.9c.33,1,.67,2,1,3.08h.09c.34-1,.65-2.09,1-3.08l2.71-7.68H255v15.7H252.4v-7.18c0-1.46.21-3.55.36-5h-.1l-1.27,3.65-2.57,7.06h-1.65l-2.6-7.06-1.24-3.65h-.1c.12,1.44.36,3.53.36,5v7.18h-2.52Z"/><path class="cls-6" d="M257.94,239c0-3.84,2.67-6.19,5.43-6.19,3.19,0,4.87,2.3,4.87,5.59a6.45,6.45,0,0,1-.12,1.34h-7.49a3.37,3.37,0,0,0,3.48,3.29,5,5,0,0,0,2.74-.86l.93,1.73a7.46,7.46,0,0,1-4,1.27C260.49,245.21,257.94,242.93,257.94,239Zm7.9-1.13c0-1.82-.79-2.93-2.4-2.93-1.39,0-2.6,1-2.83,2.93Z"/><path class="cls-6" d="M270.16,239c0-3.84,2.42-6.19,5-6.19a4.34,4.34,0,0,1,3.09,1.29l-.09-1.89V228h2.76v16.94h-2.28l-.19-1.27h-.1a4.91,4.91,0,0,1-3.34,1.56C272.05,245.21,270.16,242.93,270.16,239Zm8,2.57v-5.5a3.52,3.52,0,0,0-2.4-1c-1.51,0-2.74,1.41-2.74,3.89s1,3.91,2.67,3.91A3.18,3.18,0,0,0,278.15,241.61Z"/><path class="cls-6" d="M284.1,229.51a1.71,1.71,0,1,1,1.7,1.56A1.58,1.58,0,0,1,284.1,229.51Zm.31,3.63h2.76v11.78h-2.76Z"/><path class="cls-6" d="M290.58,240.53v-7.39h2.76v7c0,1.94.55,2.66,1.82,2.66,1,0,1.73-.48,2.62-1.63v-8.06h2.76v11.78h-2.25l-.22-1.73H298a4.8,4.8,0,0,1-3.8,2C291.68,245.21,290.58,243.51,290.58,240.53Z"/><path class="cls-6" d="M304,233.14h2.28l.2,1.6h.09a5,5,0,0,1,3.6-1.89,3.21,3.21,0,0,1,3.27,2.11c1.13-1.2,2.3-2.11,3.79-2.11,2.5,0,3.65,1.7,3.65,4.68v7.39h-2.79v-7c0-1.95-.57-2.67-1.8-2.67a3.65,3.65,0,0,0-2.47,1.47v8.23H311.1v-7c0-1.95-.57-2.67-1.82-2.67a3.73,3.73,0,0,0-2.48,1.47v8.23H304Z"/><path class="cls-6" d="M744.52,320.68h3.14l2.79,7.68c.33,1,.67,2,1,3.07h.09c.34-1,.65-2.08,1-3.07l2.71-7.68h3.17v15.7h-2.57V329.2c0-1.46.21-3.55.36-5h-.1l-1.27,3.65-2.57,7.06h-1.65l-2.6-7.06-1.24-3.65h-.1c.12,1.44.36,3.53.36,5v7.18h-2.52Z"/><path class="cls-6" d="M761.39,330.5c0-3.84,2.67-6.19,5.43-6.19,3.19,0,4.87,2.3,4.87,5.59a6.53,6.53,0,0,1-.12,1.34h-7.49a3.37,3.37,0,0,0,3.48,3.29,5,5,0,0,0,2.74-.86l.93,1.73a7.46,7.46,0,0,1-4,1.27C763.94,336.67,761.39,334.39,761.39,330.5Zm7.9-1.13c0-1.82-.79-2.93-2.4-2.93-1.39,0-2.59,1-2.83,2.93Z"/><path class="cls-6" d="M773.61,330.5c0-3.84,2.42-6.19,5-6.19a4.38,4.38,0,0,1,3.1,1.29l-.1-1.89v-4.28h2.76v16.95h-2.28l-.19-1.27h-.1a4.91,4.91,0,0,1-3.33,1.56C775.5,336.67,773.61,334.39,773.61,330.5Zm8,2.57v-5.5a3.52,3.52,0,0,0-2.4-1c-1.51,0-2.74,1.41-2.74,3.89s1,3.91,2.67,3.91A3.18,3.18,0,0,0,781.6,333.07Z"/><path class="cls-6" d="M787.55,321a1.71,1.71,0,1,1,1.71,1.56A1.58,1.58,0,0,1,787.55,321Zm.31,3.62h2.76v11.79h-2.76Z"/><path class="cls-6" d="M794,332v-7.4h2.76v7c0,1.94.55,2.66,1.83,2.66,1,0,1.72-.48,2.61-1.63v-8.07H804v11.79h-2.25l-.22-1.73h-.07a4.8,4.8,0,0,1-3.79,2C795.14,336.67,794,335,794,332Z"/><path class="cls-6" d="M807.49,324.59h2.29l.19,1.61h.09a5,5,0,0,1,3.6-1.89,3.21,3.21,0,0,1,3.27,2.11c1.13-1.2,2.3-2.11,3.79-2.11,2.5,0,3.65,1.7,3.65,4.68v7.39h-2.79v-7c0-2-.57-2.67-1.8-2.67a3.65,3.65,0,0,0-2.47,1.47v8.23h-2.76v-7c0-2-.57-2.67-1.82-2.67a3.69,3.69,0,0,0-2.47,1.47v8.23h-2.77Z"/><path class="cls-6" d="M762.21,229.22H765v6.32h6.36v-6.32h2.79v15.7h-2.79v-7H765v7h-2.78Z"/><path class="cls-6" d="M777.57,229.51a1.71,1.71,0,1,1,1.7,1.56A1.58,1.58,0,0,1,777.57,229.51Zm.31,3.63h2.76v11.78h-2.76Z"/><path class="cls-6" d="M783.38,247.06a3,3,0,0,1,1.68-2.52v-.1a2.22,2.22,0,0,1-1.06-2,2.82,2.82,0,0,1,1.3-2.18v-.1a4,4,0,0,1-1.54-3.12c0-2.71,2.18-4.22,4.66-4.22a5.24,5.24,0,0,1,1.72.29h4.23v2h-2.16a3.14,3.14,0,0,1,.67,2c0,2.61-2,4-4.46,4a4.28,4.28,0,0,1-1.61-.32,1.38,1.38,0,0,0-.58,1.13c0,.68.48,1.08,1.92,1.08h2.09c2.83,0,4.32.87,4.32,2.91,0,2.33-2.45,4.15-6.29,4.15C785.46,250.13,783.38,249.12,783.38,247.06Zm8.52-.63c0-.91-.75-1.17-2.09-1.17H788.2a6.26,6.26,0,0,1-1.61-.17,2,2,0,0,0-.91,1.56c0,1.06,1.15,1.68,3,1.68S791.9,247.44,791.9,246.43Zm-1.44-9.36a2.07,2.07,0,1,0-4.11,0,2.08,2.08,0,1,0,4.11,0Z"/><path class="cls-6" d="M796.65,228h2.76v4.36l-.1,2.28a5.43,5.43,0,0,1,3.77-1.77c2.52,0,3.62,1.7,3.62,4.68v7.39h-2.76v-7c0-1.95-.55-2.67-1.84-2.67-1,0-1.71.51-2.69,1.47v8.23h-2.76Z"/><path class="cls-6" d="M762.21,392.16H765v6.31h6.36v-6.31h2.79v15.7h-2.79v-7H765v7h-2.78Z"/><path class="cls-6" d="M777.57,392.45a1.71,1.71,0,1,1,1.7,1.56A1.58,1.58,0,0,1,777.57,392.45Zm.31,3.62h2.76v11.79h-2.76Z"/><path class="cls-6" d="M783.38,410a3,3,0,0,1,1.68-2.52v-.1a2.22,2.22,0,0,1-1.06-2,2.82,2.82,0,0,1,1.3-2.18v-.1a4,4,0,0,1-1.54-3.12c0-2.71,2.18-4.22,4.66-4.22a5.53,5.53,0,0,1,1.72.28h4.23v2h-2.16a3.2,3.2,0,0,1,.67,2c0,2.61-2,4-4.46,4a4.26,4.26,0,0,1-1.61-.31,1.36,1.36,0,0,0-.58,1.13c0,.67.48,1.08,1.92,1.08h2.09c2.83,0,4.32.86,4.32,2.91,0,2.32-2.45,4.15-6.29,4.15C785.46,413.07,783.38,412.06,783.38,410Zm8.52-.63c0-.91-.75-1.18-2.09-1.18H788.2a6.3,6.3,0,0,1-1.61-.16,2,2,0,0,0-.91,1.56c0,1.05,1.15,1.68,3,1.68S791.9,410.38,791.9,409.37ZM790.46,400a2.07,2.07,0,1,0-4.11,0,2.08,2.08,0,1,0,4.11,0Z"/><path class="cls-6" d="M796.65,390.91h2.76v4.37l-.1,2.28a5.43,5.43,0,0,1,3.77-1.77c2.52,0,3.62,1.7,3.62,4.68v7.39h-2.76v-7c0-1.95-.55-2.67-1.84-2.67-1,0-1.71.51-2.69,1.47v8.23h-2.76Z"/><path class="cls-6" d="M276.44,137.76h2.79v6.32h6.36v-6.32h2.78v15.7h-2.78v-7h-6.36v7h-2.79Z"/><path class="cls-6" d="M291.8,138.05a1.71,1.71,0,1,1,1.71,1.56A1.59,1.59,0,0,1,291.8,138.05Zm.32,3.63h2.76v11.78h-2.76Z"/><path class="cls-6" d="M297.61,155.6a3,3,0,0,1,1.68-2.52V153a2.21,2.21,0,0,1-1.05-2,2.84,2.84,0,0,1,1.29-2.18v-.1a4,4,0,0,1-1.53-3.12c0-2.71,2.18-4.22,4.65-4.22a5.26,5.26,0,0,1,1.73.29h4.23v2h-2.16a3.14,3.14,0,0,1,.67,2c0,2.62-2,4-4.47,4a4.5,4.5,0,0,1-1.61-.31,1.34,1.34,0,0,0-.57,1.12c0,.68.48,1.08,1.92,1.08h2.09c2.83,0,4.32.87,4.32,2.91,0,2.33-2.45,4.15-6.29,4.15C299.7,158.67,297.61,157.66,297.61,155.6Zm8.52-.63c0-.91-.74-1.17-2.09-1.17h-1.6a6.21,6.21,0,0,1-1.61-.17,2,2,0,0,0-.91,1.56c0,1.06,1.15,1.68,3,1.68S306.13,156,306.13,155Zm-1.44-9.36a2.07,2.07,0,1,0-4.1,0,2.07,2.07,0,1,0,4.1,0Z"/><path class="cls-6" d="M310.88,136.52h2.76v4.36l-.09,2.29a5.38,5.38,0,0,1,3.77-1.78c2.52,0,3.62,1.7,3.62,4.68v7.39h-2.76v-7c0-1.94-.55-2.67-1.85-2.67-1,0-1.7.51-2.69,1.47v8.23h-2.76Z"/><path class="cls-6" d="M568.76,447.25h3.53V462.9h-3.53Z"/><path class="cls-6" d="M576,447.25h3.87l2.52,7c.31.91.6,1.92.91,2.88h.09c.32-1,.58-2,.89-2.88l2.48-7h3.84V462.9h-3.22v-5.74c0-1.54.29-3.82.46-5.33h-.1l-1.27,3.72-2.23,6h-2l-2.23-6-1.25-3.72h-.1c.17,1.51.46,3.79.46,5.33v5.74H576Z"/><path class="cls-6" d="M594.27,447.25h5.38c3.43,0,6.21,1.24,6.21,5s-2.81,5.3-6.12,5.3H597.8v5.31h-3.53Zm5.26,7.53c1.94,0,2.88-.86,2.88-2.49s-1.06-2.24-3-2.24H597.8v4.73Z"/><path class="cls-6" d="M614.72,459.18h-4.78l-1,3.72h-3.6l4.9-15.65h4.25l4.89,15.65h-3.74Zm-.72-2.76-.36-1.45c-.43-1.55-.87-3.4-1.27-5h-.1c-.38,1.66-.79,3.49-1.22,5l-.39,1.45Z"/><path class="cls-6" d="M620.14,455.17c0-5.19,3.43-8.21,7.39-8.21a6.63,6.63,0,0,1,4.71,2l-1.87,2.26a4,4,0,0,0-2.76-1.25c-2.14,0-3.84,1.89-3.84,5s1.48,5.09,3.79,5.09a4.18,4.18,0,0,0,3.05-1.47l1.87,2.21a6.46,6.46,0,0,1-5.07,2.3C623.45,463.18,620.14,460.42,620.14,455.17Z"/><path class="cls-6" d="M637.61,450.22h-4.29v-3h12.14v3h-4.29V462.9h-3.56Z"/><path class="cls-6" d="M177.71,300.5V297h12.67v-6.19h3v9.72Z"/><path class="cls-6" d="M177.71,288.06v-3.52h15.65v3.52Z"/><path class="cls-6" d="M177.71,280.84v-3.53h6.41v-.09l-6.41-4.66v-3.89L184,273.4l9.41-5.59v3.86l-6.6,3.82,2.4,1.82h4.2v3.53Z"/><path class="cls-6" d="M177.71,266.1v-9.79h3v6.27h3.14v-5.33h3v5.33h3.59v-6.51h3v10Z"/><path class="cls-6" d="M177.71,253v-3.52h12.67v-6.2h3V253Z"/><path class="cls-6" d="M177.71,240.52V237h15.65v3.53Z"/><path class="cls-6" d="M177.71,233.3v-3.53h6v-5.4h-6v-3.55h15.65v3.55h-6.53v5.4h6.53v3.53Z"/><path class="cls-6" d="M185.47,217.87c-5.12,0-8.05-2.88-8.05-7.11s3-7.1,8.05-7.1,8.18,2.88,8.18,7.1S190.58,217.87,185.47,217.87Zm0-10.59c-3.13,0-5,1.34-5,3.48s1.87,3.48,5,3.48,5.13-1.34,5.13-3.48S188.61,207.28,185.47,207.28Z"/><path class="cls-6" d="M185.47,201.45c-5.12,0-8.05-2.88-8.05-7.11s3-7.1,8.05-7.1,8.18,2.88,8.18,7.1S190.58,201.45,185.47,201.45Zm0-10.59c-3.13,0-5,1.35-5,3.48s1.87,3.49,5,3.49,5.13-1.35,5.13-3.49S188.61,190.86,185.47,190.86Z"/><path class="cls-6" d="M177.71,184.29v-4.42c0-4.77,2.38-7.85,7.76-7.85s7.89,3.08,7.89,7.66v4.61Zm12.8-4.2c0-2.66-1.3-4.44-5-4.44s-4.9,1.78-4.9,4.44v.67h9.94Z"/><path class="cls-6" d="M409.35,229.22h2.79v13.35h6.53v2.35h-9.32Z"/><path class="cls-6" d="M420.08,239c0-3.94,2.67-6.19,5.59-6.19s5.62,2.25,5.62,6.19-2.66,6.17-5.62,6.17S420.08,243,420.08,239Zm8.38,0c0-2.38-1.06-3.94-2.79-3.94s-2.76,1.56-2.76,3.94,1,3.91,2.76,3.91S428.46,241.39,428.46,239Z"/><path class="cls-6" d="M432.7,233.14h2.79l1.41,6.12c.25,1.12.41,2.23.63,3.38h.1c.21-1.15.45-2.28.74-3.38l1.54-6.12h2.52l1.56,6.12c.28,1.12.52,2.23.79,3.38h.09c.22-1.15.41-2.26.63-3.38l1.41-6.12h2.6l-3,11.78h-3.29l-1.37-5.49c-.26-1.11-.46-2.19-.72-3.44H441c-.21,1.25-.43,2.35-.69,3.46L439,244.92h-3.17Z"/><path class="cls-6" d="M587.12,320.68h2.78V334h6.53v2.35h-9.31Z"/><path class="cls-6" d="M597.85,330.5c0-3.94,2.66-6.19,5.59-6.19s5.61,2.25,5.61,6.19-2.66,6.17-5.61,6.17S597.85,334.41,597.85,330.5Zm8.37,0c0-2.38-1.05-3.94-2.78-3.94s-2.76,1.56-2.76,3.94,1,3.91,2.76,3.91S606.22,332.85,606.22,330.5Z"/><path class="cls-6" d="M610.47,324.59h2.78l1.42,6.13c.24,1.12.41,2.23.62,3.38h.1c.22-1.15.46-2.28.74-3.38l1.54-6.13h2.52l1.56,6.13c.29,1.12.53,2.23.79,3.38h.1c.21-1.15.41-2.26.62-3.38l1.42-6.13h2.59l-3,11.79H621l-1.37-5.5c-.26-1.1-.45-2.18-.72-3.43h-.09c-.22,1.25-.43,2.35-.7,3.46l-1.34,5.47h-3.17Z"/><path class="cls-6" d="M409.35,320.68h2.79V334h6.53v2.35h-9.32Z"/><path class="cls-6" d="M420.08,330.5c0-3.94,2.67-6.19,5.59-6.19s5.62,2.25,5.62,6.19-2.66,6.17-5.62,6.17S420.08,334.41,420.08,330.5Zm8.38,0c0-2.38-1.06-3.94-2.79-3.94s-2.76,1.56-2.76,3.94,1,3.91,2.76,3.91S428.46,332.85,428.46,330.5Z"/><path class="cls-6" d="M432.7,324.59h2.79l1.41,6.13c.25,1.12.41,2.23.63,3.38h.1c.21-1.15.45-2.28.74-3.38l1.54-6.13h2.52l1.56,6.13c.28,1.12.52,2.23.79,3.38h.09c.22-1.15.41-2.26.63-3.38l1.41-6.13h2.6l-3,11.79h-3.29l-1.37-5.5c-.26-1.1-.46-2.18-.72-3.43H441c-.21,1.25-.43,2.35-.69,3.46L439,336.38h-3.17Z"/><path class="cls-6" d="M409.35,391.59h2.79v13.34h6.53v2.35h-9.32Z"/><path class="cls-6" d="M420.08,401.4c0-3.93,2.67-6.19,5.59-6.19s5.62,2.26,5.62,6.19-2.66,6.17-5.62,6.17S420.08,405.32,420.08,401.4Zm8.38,0c0-2.37-1.06-3.93-2.79-3.93s-2.76,1.56-2.76,3.93,1,3.92,2.76,3.92S428.46,403.76,428.46,401.4Z"/><path class="cls-6" d="M432.7,395.5h2.79l1.41,6.12c.25,1.13.41,2.23.63,3.38h.1c.21-1.15.45-2.28.74-3.38l1.54-6.12h2.52l1.56,6.12c.28,1.13.52,2.23.79,3.38h.09c.22-1.15.41-2.25.63-3.38l1.41-6.12h2.6l-3,11.78h-3.29l-1.37-5.49c-.26-1.11-.46-2.19-.72-3.44H441c-.21,1.25-.43,2.36-.69,3.46L439,407.28h-3.17Z"/><path class="cls-6" d="M281.8,320.68h2.78V334h6.53v2.35H281.8Z"/><path class="cls-6" d="M292.52,330.5c0-3.94,2.67-6.19,5.6-6.19s5.61,2.25,5.61,6.19-2.66,6.17-5.61,6.17S292.52,334.41,292.52,330.5Zm8.38,0c0-2.38-1.06-3.94-2.78-3.94s-2.76,1.56-2.76,3.94,1,3.91,2.76,3.91S300.9,332.85,300.9,330.5Z"/><path class="cls-6" d="M305.15,324.59h2.78l1.42,6.13c.24,1.12.41,2.23.62,3.38h.1c.21-1.15.45-2.28.74-3.38l1.54-6.13h2.52l1.56,6.13c.29,1.12.53,2.23.79,3.38h.1c.21-1.15.4-2.26.62-3.38l1.42-6.13H322l-3,11.79h-3.29l-1.37-5.5c-.26-1.1-.45-2.18-.72-3.43h-.09c-.22,1.25-.44,2.35-.7,3.46l-1.34,5.47h-3.17Z"/><path class="cls-6" d="M584.44,137.76h2.79v6.32h6.36v-6.32h2.78v15.7h-2.78v-7h-6.36v7h-2.79Z"/><path class="cls-6" d="M599.8,138.05a1.71,1.71,0,1,1,1.71,1.56A1.59,1.59,0,0,1,599.8,138.05Zm.31,3.63h2.76v11.78h-2.76Z"/><path class="cls-6" d="M605.61,155.6a3,3,0,0,1,1.68-2.52V153a2.22,2.22,0,0,1-1.06-2,2.85,2.85,0,0,1,1.3-2.18v-.1a4,4,0,0,1-1.54-3.12c0-2.71,2.19-4.22,4.66-4.22a5.26,5.26,0,0,1,1.73.29h4.22v2h-2.16a3.09,3.09,0,0,1,.67,2c0,2.62-2,4-4.46,4a4.5,4.5,0,0,1-1.61-.31,1.34,1.34,0,0,0-.57,1.12c0,.68.48,1.08,1.92,1.08h2.08c2.84,0,4.32.87,4.32,2.91,0,2.33-2.44,4.15-6.28,4.15C607.7,158.67,605.61,157.66,605.61,155.6Zm8.52-.63c0-.91-.74-1.17-2.09-1.17h-1.61a6.18,6.18,0,0,1-1.6-.17,2,2,0,0,0-.92,1.56c0,1.06,1.16,1.68,3,1.68S614.13,156,614.13,155Zm-1.44-9.36a2.07,2.07,0,1,0-4.1,0,2.07,2.07,0,1,0,4.1,0Z"/><path class="cls-6" d="M618.88,136.52h2.76v4.36l-.09,2.29a5.38,5.38,0,0,1,3.76-1.78c2.52,0,3.63,1.7,3.63,4.68v7.39h-2.76v-7c0-1.94-.55-2.67-1.85-2.67-1,0-1.7.51-2.69,1.47v8.23h-2.76Z"/><path class="cls-6" d="M762.21,137.76H765v6.32h6.36v-6.32h2.79v15.7h-2.79v-7H765v7h-2.78Z"/><path class="cls-6" d="M777.57,138.05a1.71,1.71,0,1,1,1.7,1.56A1.58,1.58,0,0,1,777.57,138.05Zm.31,3.63h2.76v11.78h-2.76Z"/><path class="cls-6" d="M783.38,155.6a3,3,0,0,1,1.68-2.52V153a2.22,2.22,0,0,1-1.06-2,2.82,2.82,0,0,1,1.3-2.18v-.1a4,4,0,0,1-1.54-3.12c0-2.71,2.18-4.22,4.66-4.22a5.24,5.24,0,0,1,1.72.29h4.23v2h-2.16a3.14,3.14,0,0,1,.67,2c0,2.62-2,4-4.46,4a4.46,4.46,0,0,1-1.61-.31,1.35,1.35,0,0,0-.58,1.12c0,.68.48,1.08,1.92,1.08h2.09c2.83,0,4.32.87,4.32,2.91,0,2.33-2.45,4.15-6.29,4.15C785.46,158.67,783.38,157.66,783.38,155.6Zm8.52-.63c0-.91-.75-1.17-2.09-1.17H788.2a6.26,6.26,0,0,1-1.61-.17,2,2,0,0,0-.91,1.56c0,1.06,1.15,1.68,3,1.68S791.9,156,791.9,155Zm-1.44-9.36a2.07,2.07,0,1,0-4.11,0,2.08,2.08,0,1,0,4.11,0Z"/><path class="cls-6" d="M796.65,136.52h2.76v4.36l-.1,2.29a5.4,5.4,0,0,1,3.77-1.78c2.52,0,3.62,1.7,3.62,4.68v7.39h-2.76v-7c0-1.94-.55-2.67-1.84-2.67-1,0-1.71.51-2.69,1.47v8.23h-2.76Z"/><rect class="cls-5" x="517.6" y="190.89" width="177.77" height="91.46" rx="5"/><rect class="cls-5" x="517.6" y="282.35" width="177.77" height="91.46" rx="5"/><rect class="cls-5" x="695.37" y="282.35" width="177.77" height="91.46" rx="5"/><rect class="cls-5" x="695.37" y="190.89" width="177.77" height="91.46" rx="5"/><rect class="cls-5" x="339.84" y="99.43" width="177.77" height="91.46" rx="5"/><rect class="cls-5" x="517.6" y="99.43" width="177.77" height="91.46" rx="5"/><rect class="cls-7" width="1090.14" height="603.95"/></g></g></svg>