<svg xmlns="http://www.w3.org/2000/svg" viewBox="0 0 913.92 455"><defs><style>.cls-1{isolation:isolate;}.cls-2{fill:#f1f9f8;}.cls-3{fill:#2c302f;}.cls-10,.cls-4{fill:#ff736c;}.cls-5{fill:#42ab9a;}.cls-6,.cls-7{fill:#469bda;}.cls-10,.cls-7{opacity:0.35;mix-blend-mode:multiply;}.cls-8,.cls-9{fill:none;stroke-miterlimit:10;}.cls-8{stroke:#bfc2c1;}.cls-9{stroke:#2c302f;}.cls-11{fill:#fff;}</style></defs><g class="cls-1"><g id="Layer_2" data-name="Layer 2"><g id="Secure_SDLC" data-name="Secure SDLC"><path class="cls-2" d="M10.89,173.7C-17.18,240.29,9.2,394.42,88,432c99.09,47.22,323.7,11.24,447.46-13.95,147.48-30,230.2-16.81,352.08-112.25,80.47-63-35.17-317.84-182.27-272.1C524.34,89.92,375.93-6,262.05.3,155.09,6.26,36.89,69.47,10.89,173.7Z"/><path class="cls-3" d="M63.87,343.44,65.79,342a2.75,2.75,0,0,0,2.45,1.66c1.46,0,2.21-.79,2.21-3V330.12h2.78v10.77c0,2.86-1.39,5.21-4.68,5.21A5,5,0,0,1,63.87,343.44Z"/><path class="cls-3" d="M76.13,339.93c0-3.93,2.67-6.19,5.6-6.19s5.61,2.26,5.61,6.19-2.66,6.17-5.61,6.17S76.13,343.85,76.13,339.93Zm8.38,0c0-2.37-1.05-3.93-2.78-3.93S79,337.56,79,339.93s1,3.92,2.76,3.92S84.51,342.29,84.51,339.93Z"/><path class="cls-3" d="M92.58,344.57H92.5l-.24,1.24H90.08V328.87h2.76v4.37l-.07,2a5.33,5.33,0,0,1,3.41-1.47c2.95,0,4.65,2.35,4.65,6,0,4-2.42,6.38-5,6.38A4.7,4.7,0,0,1,92.58,344.57Zm5.4-4.8c0-2.36-.77-3.75-2.55-3.75a3.76,3.76,0,0,0-2.59,1.32v5.5a3.67,3.67,0,0,0,2.38,1C96.78,343.82,98,342.43,98,339.77Z"/><path class="cls-3" d="M107.55,343.8l1.63-1.9a6.23,6.23,0,0,0,4.08,1.78c1.78,0,2.74-.79,2.74-2s-1-1.7-2.43-2.3l-2.16-.94a4.52,4.52,0,0,1-3.16-4.17c0-2.5,2.2-4.42,5.28-4.42a6.93,6.93,0,0,1,4.82,2l-1.42,1.78a5.09,5.09,0,0,0-3.4-1.35c-1.49,0-2.48.7-2.48,1.85s1.2,1.68,2.5,2.21l2.14.89c1.85.79,3.17,2,3.17,4.25,0,2.54-2.12,4.65-5.65,4.65A8.14,8.14,0,0,1,107.55,343.8Z"/><path class="cls-3" d="M121.25,341.83v-5.62h-1.68v-2.06l1.83-.12.33-3.22H124V334h3v2.18h-3v5.62c0,1.39.53,2.06,1.65,2.06a3.51,3.51,0,0,0,1.23-.26l.48,2a7.46,7.46,0,0,1-2.4.43C122.26,346.1,121.25,344.37,121.25,341.83Z"/><path class="cls-3" d="M128.38,342.65c0-2.52,2.09-3.84,6.94-4.37,0-1.25-.55-2.31-2.16-2.31a6.65,6.65,0,0,0-3.31,1.16l-1-1.85a9.15,9.15,0,0,1,4.85-1.54c2.93,0,4.39,1.8,4.39,5.09v7H135.8l-.19-1.29h-.1a5.74,5.74,0,0,1-3.65,1.58A3.29,3.29,0,0,1,128.38,342.65Zm6.94,0V340c-3.22.4-4.27,1.24-4.27,2.42s.72,1.51,1.7,1.51A3.77,3.77,0,0,0,135.32,342.65Z"/><path class="cls-3" d="M141.39,334h2.28l.19,2.09h.1a4,4,0,0,1,3.33-2.38,3,3,0,0,1,1.35.24l-.48,2.4a3.87,3.87,0,0,0-1.23-.19c-.93,0-2.06.65-2.78,2.42v7.2h-2.76Z"/><path class="cls-3" d="M150.75,341.83v-5.62h-1.68v-2.06l1.82-.12.34-3.22h2.3V334h3v2.18h-3v5.62c0,1.39.53,2.06,1.66,2.06a3.4,3.4,0,0,0,1.22-.26l.48,2a7.36,7.36,0,0,1-2.4.43C151.76,346.1,150.75,344.37,150.75,341.83Z"/><path class="cls-4" d="M749.17,312.89H63.87s20.07-54,35.25-75.95c30.83-44.55,182.06-35.22,317.62-35.22,127.68,0,299.36,4.6,303.34,11.94C729.25,230.52,749.17,312.89,749.17,312.89Z"/><path class="cls-5" d="M749.27,312.89s-37.16-192.26-103-192.26c-71,0-117.14,97.5-201.16,140.32C356.49,306.12,63.3,312.89,63.3,312.89Z"/><path class="cls-6" d="M63.3,312.89s39.28-125.73,105.12-125.73c71,0,115,31,199,73.79,88.62,45.17,381.82,51.94,381.82,51.94Z"/><path class="cls-5" d="M749.27,312.89H63.87c12.71-.32,231.23-6.21,342.41-37.57,15.22-4.29,28.43-9.06,38.83-14.36,27.71-14.12,51.31-34.19,73-54.75,44.14-41.78,80.57-85.57,128.12-85.57,30.5,0,54.85,41.27,72.2,85.57C738.57,257.51,749.27,312.89,749.27,312.89Z"/><path class="cls-6" d="M749.27,312.89h-686s.19-.62.58-1.78c3.73-11.24,25.43-73,61-104.91,12.78-11.45,30.46-19.32,46.64-19.32,33.82,0,58.41,7.32,87.25,19.32,31.66,13.17,64.69,32.34,108.67,54.75,10.4,5.3,23.61,10.07,38.83,14.36C520.82,307.61,749.27,312.89,749.27,312.89Z"/><path class="cls-7" d="M749.27,312.89h-686s228.44-5.27,343-37.57C520.83,307.62,749.27,312.89,749.27,312.89Z"/><line class="cls-8" x1="63.4" y1="5.69" x2="63.4" y2="312.89"/><line class="cls-8" x1="848.41" y1="312.89" x2="63.4" y2="312.89"/><line class="cls-9" x1="749.17" y1="312.89" x2="63.4" y2="312.89"/><line class="cls-9" x1="63.3" y1="300.24" x2="63.3" y2="325.54"/><line class="cls-9" x1="749.17" y1="300.24" x2="749.17" y2="325.54"/><path class="cls-10" d="M749.17,312.89H63.77v-1.78c3.73-11.24,26.38-59.23,75.41-85C193,197.86,246.5,200.9,246.5,200.9c31.66,13.17,76.87,37.64,120.85,60,10.4,5.3,23.61,10.07,38.83,14.36C421.4,271,434.61,266.25,445,261c27.71-14.12,54.54-37.95,76.27-58.51,0,0,101.19-6.75,154.94,20.52C728.6,249.54,749.17,312.89,749.17,312.89Z"/><path class="cls-3" d="M231.43,413.65l2.17-2.53a8.33,8.33,0,0,0,5.44,2.37c2.37,0,3.65-1.05,3.65-2.69s-1.34-2.27-3.23-3.07l-2.88-1.25c-2.05-.86-4.23-2.49-4.23-5.56,0-3.33,3-5.89,7-5.89a9.26,9.26,0,0,1,6.44,2.65l-1.89,2.37a6.83,6.83,0,0,0-4.55-1.79c-2,0-3.29.93-3.29,2.46s1.6,2.24,3.33,2.95l2.84,1.18c2.47,1.06,4.23,2.63,4.23,5.67,0,3.39-2.82,6.2-7.52,6.2A10.83,10.83,0,0,1,231.43,413.65Z"/><path class="cls-3" d="M249,408.5c0-5.25,3.55-8.26,7.46-8.26s7.49,3,7.49,8.26-3.56,8.22-7.49,8.22S249,413.72,249,408.5Zm11.17,0c0-3.17-1.41-5.25-3.71-5.25s-3.68,2.08-3.68,5.25,1.37,5.22,3.68,5.22S260.13,411.64,260.13,408.5Z"/><path class="cls-3" d="M285.15,416.15a10.28,10.28,0,0,1-3.23.57c-3.61,0-5-2.3-5-5.69v-7.49h-5.21v12.8h-3.68v-12.8H266v-2.75l2.12-.16V399c0-3.27,1.5-5.64,5.21-5.64a7.88,7.88,0,0,1,2.88.55l-.7,2.75a4.3,4.3,0,0,0-1.73-.38c-1.28,0-2,.83-2,2.65v1.7h5.4l.45-4.29h3v4.29h4v2.91h-4V411c0,1.85.74,2.75,2.24,2.75a4.47,4.47,0,0,0,1.63-.35Z"/><path class="cls-3" d="M286.4,400.63h3.71l1.89,8.16c.32,1.5.55,3,.83,4.51H293c.29-1.54.61-3,1-4.51l2.05-8.16h3.36l2.08,8.16c.39,1.5.71,3,1.06,4.51h.13c.28-1.54.54-3,.83-4.51l1.89-8.16h3.45l-4,15.71h-4.38L298.59,409c-.35-1.47-.6-2.91-1-4.57h-.12c-.29,1.66-.58,3.13-.93,4.6l-1.79,7.3h-4.23Z"/><path class="cls-3" d="M310.75,412.12c0-3.36,2.79-5.13,9.25-5.83-.06-1.66-.73-3.07-2.88-3.07a8.85,8.85,0,0,0-4.41,1.54l-1.35-2.47a12.29,12.29,0,0,1,6.47-2.05c3.9,0,5.85,2.4,5.85,6.79v9.31h-3l-.25-1.73h-.13a7.63,7.63,0,0,1-4.87,2.11A4.39,4.39,0,0,1,310.75,412.12Zm9.25,0V408.6c-4.29.54-5.69,1.66-5.69,3.23,0,1.4,1,2,2.27,2A5,5,0,0,0,320,412.12Z"/><path class="cls-3" d="M328.1,400.63h3l.25,2.78h.13c1.12-2.05,2.79-3.17,4.45-3.17a4,4,0,0,1,1.79.32l-.64,3.2a5.12,5.12,0,0,0-1.63-.25c-1.25,0-2.75.86-3.71,3.23v9.6H328.1Z"/><path class="cls-3" d="M338.69,408.5c0-5.12,3.55-8.26,7.23-8.26,4.26,0,6.5,3.07,6.5,7.46a9,9,0,0,1-.16,1.79h-10c.32,2.79,2.12,4.39,4.64,4.39a6.53,6.53,0,0,0,3.65-1.16l1.25,2.31a9.91,9.91,0,0,1-5.38,1.69C342.08,416.72,338.69,413.68,338.69,408.5ZM349.22,407c0-2.43-1.06-3.9-3.2-3.9-1.86,0-3.46,1.38-3.78,3.9Z"/><path class="cls-3" d="M362.66,395.41h5.6c6.4,0,10.17,3.46,10.17,10.37s-3.77,10.56-10,10.56h-5.79ZM368,413.33c4.22,0,6.62-2.4,6.62-7.55s-2.4-7.36-6.62-7.36h-1.63v14.91Z"/><path class="cls-3" d="M381.31,408.5c0-5.12,3.56-8.26,7.23-8.26,4.26,0,6.5,3.07,6.5,7.46a8.29,8.29,0,0,1-.16,1.79h-10c.32,2.79,2.11,4.39,4.64,4.39a6.52,6.52,0,0,0,3.64-1.16l1.25,2.31a9.91,9.91,0,0,1-5.37,1.69C384.7,416.72,381.31,413.68,381.31,408.5ZM391.84,407c0-2.43-1.06-3.9-3.2-3.9-1.85,0-3.46,1.38-3.77,3.9Z"/><path class="cls-3" d="M396.61,400.63h3.74l2.5,8.16c.41,1.53.89,3.13,1.31,4.73h.13c.45-1.6.89-3.2,1.34-4.73l2.5-8.16h3.55l-5.34,15.71h-4.26Z"/><path class="cls-3" d="M413.18,408.5c0-5.12,3.56-8.26,7.24-8.26,4.25,0,6.49,3.07,6.49,7.46a8.29,8.29,0,0,1-.16,1.79h-10c.32,2.79,2.11,4.39,4.64,4.39a6.58,6.58,0,0,0,3.65-1.16L426.3,415a9.91,9.91,0,0,1-5.37,1.69C416.58,416.72,413.18,413.68,413.18,408.5ZM423.71,407c0-2.43-1-3.9-3.2-3.9-1.85,0-3.45,1.38-3.77,3.9Z"/><path class="cls-3" d="M430.43,412.31V393.75h3.68V412.5c0,.9.42,1.22.8,1.22a2.06,2.06,0,0,0,.58-.07l.48,2.75a5.07,5.07,0,0,1-2,.32C431.39,416.72,430.43,415,430.43,412.31Z"/><path class="cls-3" d="M438.08,408.5c0-5.25,3.55-8.26,7.46-8.26s7.48,3,7.48,8.26-3.55,8.22-7.48,8.22S438.08,413.72,438.08,408.5Zm11.17,0c0-3.17-1.41-5.25-3.71-5.25s-3.68,2.08-3.68,5.25,1.37,5.22,3.68,5.22S449.25,411.64,449.25,408.5Z"/><path class="cls-3" d="M456.67,400.63h3l.26,1.66h.13a7.64,7.64,0,0,1,4.73-2.05c3.91,0,6.18,3.14,6.18,8,0,5.38-3.23,8.48-6.72,8.48a6.33,6.33,0,0,1-4-1.73l.09,2.63v4.93h-3.68Zm10.53,7.65c0-3.14-1-5-3.39-5a5.06,5.06,0,0,0-3.46,1.76v7.33a5,5,0,0,0,3.17,1.31C465.6,413.68,467.2,411.83,467.2,408.28Z"/><path class="cls-3" d="M474.72,400.63h3l.26,2.14h.12a6.66,6.66,0,0,1,4.8-2.53,4.28,4.28,0,0,1,4.36,2.82c1.5-1.6,3.07-2.82,5.05-2.82,3.33,0,4.86,2.28,4.86,6.24v9.86H493.5V407c0-2.59-.77-3.55-2.4-3.55-1,0-2.08.64-3.29,1.95v11h-3.68V407c0-2.59-.77-3.55-2.43-3.55-1,0-2.08.64-3.3,1.95v11h-3.68Z"/><path class="cls-3" d="M500.67,408.5c0-5.12,3.55-8.26,7.23-8.26,4.26,0,6.5,3.07,6.5,7.46a9,9,0,0,1-.16,1.79h-10c.32,2.79,2.11,4.39,4.63,4.39a6.53,6.53,0,0,0,3.65-1.16l1.25,2.31a9.91,9.91,0,0,1-5.38,1.69C504.06,416.72,500.67,413.68,500.67,408.5ZM511.2,407c0-2.43-1.06-3.9-3.2-3.9-1.86,0-3.46,1.38-3.78,3.9Z"/><path class="cls-3" d="M517.92,400.63h3l.25,2.11h.13a7.29,7.29,0,0,1,5.15-2.5c3.36,0,4.84,2.28,4.84,6.24v9.86h-3.68V407c0-2.59-.74-3.55-2.47-3.55-1.37,0-2.27.67-3.58,1.95v11h-3.68Z"/><path class="cls-3" d="M536.38,411v-7.49h-2.24v-2.75l2.44-.16.44-4.29h3.07v4.29h4v2.91h-4V411c0,1.85.71,2.75,2.21,2.75a4.47,4.47,0,0,0,1.63-.35l.64,2.72a10.24,10.24,0,0,1-3.2.57C537.73,416.72,536.38,414.42,536.38,411Z"/><path class="cls-3" d="M554.11,395.41h3.71V413.2h8.71v3.14H554.11Z"/><path class="cls-3" d="M569.44,395.8a2.28,2.28,0,1,1,2.27,2.08A2.12,2.12,0,0,1,569.44,395.8Zm.41,4.83h3.68v15.71h-3.68Z"/><path class="cls-3" d="M586.27,396.66a4.27,4.27,0,0,0-1.73-.38c-1.28,0-2,.83-2,2.65v1.7h3.07v2.91h-3.07v12.8h-3.68v-12.8h-2.11v-2.75l2.11-.16V399c0-3.27,1.5-5.64,5.21-5.64a7.88,7.88,0,0,1,2.88.55Z"/><path class="cls-3" d="M587,408.5c0-5.12,3.55-8.26,7.23-8.26,4.26,0,6.5,3.07,6.5,7.46a9,9,0,0,1-.16,1.79h-10c.32,2.79,2.11,4.39,4.64,4.39a6.53,6.53,0,0,0,3.65-1.16l1.25,2.31a9.94,9.94,0,0,1-5.38,1.69C590.43,416.72,587,413.68,587,408.5ZM597.57,407c0-2.43-1.06-3.9-3.2-3.9-1.86,0-3.46,1.38-3.78,3.9Z"/><path class="cls-3" d="M609.92,405.94c0-6.85,4.29-10.91,9.57-10.91a8.32,8.32,0,0,1,6,2.65l-2,2.4a5.49,5.49,0,0,0-4-1.82c-3.42,0-5.85,2.88-5.85,7.58s2.24,7.65,5.76,7.65a5.94,5.94,0,0,0,4.47-2.14l2,2.33a8.43,8.43,0,0,1-6.59,3C614.08,416.72,609.92,412.88,609.92,405.94Z"/><path class="cls-3" d="M627.61,422.48l.68-2.88a3.64,3.64,0,0,0,1.12.23c1.66,0,2.62-1.12,3.13-2.69l.29-1-6.18-15.52h3.75l2.72,7.71c.45,1.38.89,2.94,1.37,4.41h.13c.39-1.44.8-3,1.19-4.41l2.36-7.71h3.55L636,417c-1.31,3.55-2.94,5.76-6.37,5.76A6.21,6.21,0,0,1,627.61,422.48Z"/><path class="cls-3" d="M643.23,408.5c0-5.25,3.68-8.26,7.87-8.26a6.77,6.77,0,0,1,4.61,1.76l-1.79,2.4a3.88,3.88,0,0,0-2.63-1.15c-2.52,0-4.28,2.08-4.28,5.25s1.72,5.22,4.19,5.22a5.24,5.24,0,0,0,3.23-1.35l1.5,2.43a7.85,7.85,0,0,1-5.12,1.92C646.53,416.72,643.23,413.72,643.23,408.5Z"/><path class="cls-3" d="M659,412.31V393.75h3.68V412.5c0,.9.41,1.22.8,1.22a2,2,0,0,0,.57-.07l.48,2.75a5,5,0,0,1-2,.32C660,416.72,659,415,659,412.31Z"/><path class="cls-3" d="M666.69,408.5c0-5.12,3.55-8.26,7.23-8.26,4.25,0,6.49,3.07,6.49,7.46a8.29,8.29,0,0,1-.16,1.79h-10c.32,2.79,2.11,4.39,4.64,4.39a6.58,6.58,0,0,0,3.65-1.16L679.8,415a9.91,9.91,0,0,1-5.37,1.69C670.08,416.72,666.69,413.68,666.69,408.5ZM677.21,407c0-2.43-1.05-3.9-3.2-3.9-1.85,0-3.45,1.38-3.77,3.9Z"/><path class="cls-3" d="M7.5,277v4.54H5.15V269.67H7.5v4.54H20.85V277Z"/><path class="cls-3" d="M3.9,267.3v-2.77H8.27l2.28.1a5.38,5.38,0,0,1-1.78-3.77c0-2.52,1.71-3.62,4.68-3.62h7.4V260h-7c-1.94,0-2.66.55-2.66,1.85,0,1,.5,1.7,1.46,2.68h8.24v2.77Z"/><path class="cls-3" d="M15,254.67c-3.84,0-6.2-2.66-6.2-5.42,0-3.2,2.31-4.88,5.6-4.88a6.6,6.6,0,0,1,1.34.12V252A3.37,3.37,0,0,0,19,248.5a4.93,4.93,0,0,0-.86-2.73l1.72-.94a7.39,7.39,0,0,1,1.28,4C21.14,252.13,18.85,254.67,15,254.67Zm-1.13-7.9c-1.83,0-2.93.8-2.93,2.41,0,1.39,1,2.59,2.93,2.83Z"/><path class="cls-3" d="M9.06,236.94v-2.28l1.59-.2v-.09a5.47,5.47,0,0,1-1.88-3.87c0-2.52,1.71-3.62,4.68-3.62h7.4v2.76h-7c-1.94,0-2.66.55-2.66,1.85,0,1,.5,1.7,1.46,2.69h8.24v2.76Z"/><path class="cls-3" d="M16.45,223.62H9.06v-2.77h7c1.94,0,2.66-.55,2.66-1.82,0-1-.48-1.73-1.63-2.61H9.06v-2.76H20.85v2.25l-1.73.22v.07a4.81,4.81,0,0,1,2,3.79C21.14,222.51,19.43,223.62,16.45,223.62Z"/><path class="cls-3" d="M9.06,210.15v-2.28l1.61-.19v-.1a5,5,0,0,1-1.9-3.6,3.21,3.21,0,0,1,2.12-3.26c-1.2-1.13-2.12-2.31-2.12-3.79,0-2.5,1.71-3.65,4.68-3.65h7.4v2.78h-7c-1.94,0-2.66.58-2.66,1.8a3.69,3.69,0,0,0,1.46,2.48h8.24v2.76h-7c-1.94,0-2.66.57-2.66,1.82a3.71,3.71,0,0,0,1.46,2.47h8.24v2.76Z"/><path class="cls-3" d="M19.6,187.42v.08l1.25.24v2.18H3.9v-2.76H8.27l2,.07a5.35,5.35,0,0,1-1.47-3.41c0-2.95,2.36-4.65,6-4.65,4.06,0,6.39,2.42,6.39,5A4.71,4.71,0,0,1,19.6,187.42ZM14.8,182c-2.35,0-3.75.77-3.75,2.55a3.8,3.8,0,0,0,1.32,2.59h5.5a3.67,3.67,0,0,0,1-2.38C18.85,183.22,17.46,182,14.8,182Z"/><path class="cls-3" d="M15,177.18c-3.84,0-6.2-2.67-6.2-5.43,0-3.19,2.31-4.87,5.6-4.87a6.6,6.6,0,0,1,1.34.12v7.49A3.38,3.38,0,0,0,19,171a5,5,0,0,0-.86-2.74l1.72-.93a7.36,7.36,0,0,1,1.28,4C21.14,174.63,18.85,177.18,15,177.18Zm-1.13-7.9c-1.83,0-2.93.79-2.93,2.4,0,1.39,1,2.59,2.93,2.83Z"/><path class="cls-3" d="M9.06,164.24V162l2.09-.19v-.1a4,4,0,0,1-2.38-3.33A3.14,3.14,0,0,1,9,157l2.4.48a3.87,3.87,0,0,0-.19,1.23c0,.93.65,2.06,2.43,2.78h7.2v2.76Z"/><path class="cls-3" d="M15,151.26c-3.94,0-6.2-2.67-6.2-5.6s2.26-5.61,6.2-5.61,6.17,2.66,6.17,5.61S18.88,151.26,15,151.26Zm0-8.38c-2.38,0-3.94,1.06-3.94,2.78s1.56,2.77,3.94,2.77,3.91-1,3.91-2.77S17.32,142.88,15,142.88Z"/><path class="cls-3" d="M6.09,131.38a3.16,3.16,0,0,0-.29,1.3c0,1,.62,1.49,2,1.49H9.06v-2.31h2.19v2.31h9.6v2.76h-9.6v1.58H9.18l-.12-1.58H7.84c-2.45,0-4.23-1.13-4.23-3.91A6.05,6.05,0,0,1,4,130.86Z"/><path class="cls-3" d="M18.83,125.84l-1.9-1.63a6.23,6.23,0,0,0,1.78-4.08c0-1.78-.79-2.74-2-2.74s-1.7,1-2.3,2.43L13.45,122a4.52,4.52,0,0,1-4.17,3.17c-2.5,0-4.42-2.21-4.42-5.29a6.93,6.93,0,0,1,2-4.82l1.78,1.42a5.1,5.1,0,0,0-1.34,3.4c0,1.49.69,2.48,1.84,2.48s1.68-1.2,2.21-2.5l.89-2.14c.79-1.84,2-3.16,4.25-3.16,2.54,0,4.66,2.11,4.66,5.64A8.11,8.11,0,0,1,18.83,125.84Z"/><path class="cls-3" d="M15,112.69c-3.84,0-6.2-2.67-6.2-5.43,0-3.19,2.31-4.87,5.6-4.87a6.6,6.6,0,0,1,1.34.12V110A3.37,3.37,0,0,0,19,106.52a5,5,0,0,0-.86-2.74l1.72-.93a7.39,7.39,0,0,1,1.28,4C21.14,110.15,18.85,112.69,15,112.69Zm-1.13-7.9c-1.83,0-2.93.8-2.93,2.4,0,1.4,1,2.6,2.93,2.83Z"/><path class="cls-3" d="M15,100.52a5.82,5.82,0,0,1-6.2-5.9,5.08,5.08,0,0,1,1.32-3.46l1.8,1.35a2.87,2.87,0,0,0-.86,2c0,1.9,1.56,3.22,3.94,3.22s3.91-1.3,3.91-3.14a3.94,3.94,0,0,0-1-2.43L19.69,91a5.92,5.92,0,0,1,1.45,3.84C21.14,98.05,18.88,100.52,15,100.52Z"/><path class="cls-3" d="M16.45,88.79H9.06V86h7c1.94,0,2.66-.56,2.66-1.83,0-1-.48-1.73-1.63-2.61H9.06V78.83H20.85v2.25l-1.73.22v.07a4.81,4.81,0,0,1,2,3.79C21.14,87.68,19.43,88.79,16.45,88.79Z"/><path class="cls-3" d="M9.06,75.32V73l2.09-.19v-.1a4,4,0,0,1-2.38-3.33A3.14,3.14,0,0,1,9,68.07l2.4.48a3.87,3.87,0,0,0-.19,1.23c0,.93.65,2.06,2.43,2.78h7.2v2.76Z"/><path class="cls-3" d="M5.44,66.68A1.71,1.71,0,1,1,7,65,1.59,1.59,0,0,1,5.44,66.68Zm3.62-.31V63.61H20.85v2.76Z"/><path class="cls-3" d="M16.86,59.68H11.25v1.67H9.18l-.12-1.82-3.21-.34v-2.3H9.06v-3h2.19v3h5.61c1.4,0,2.07-.53,2.07-1.66A3.29,3.29,0,0,0,18.66,54l2-.48a7.39,7.39,0,0,1,.44,2.4C21.14,58.67,19.41,59.68,16.86,59.68Z"/><path class="cls-3" d="M25.46,52.16l-2.16-.5a3,3,0,0,0,.16-.84,2.46,2.46,0,0,0-2-2.35l-.75-.22L9.06,52.88V50.07l5.79-2c1-.33,2.2-.67,3.31-1v-.09L14.85,46,9.06,44.24V41.58l12.32,4.27c2.66,1,4.32,2.21,4.32,4.78A4.67,4.67,0,0,1,25.46,52.16Z"/><path class="cls-3" d="M45.4,199.84v5.28l4.25,1.23v2.83L34,204.07V200.8l15.7-5.11v2.93Zm-2.19.63-1.92.55c-1.65.5-3.45,1-5.18,1.41v.1c1.75.43,3.53.89,5.18,1.39l1.92.56Z"/><path class="cls-3" d="M43.77,194.76a5.82,5.82,0,0,1-6.2-5.91,5.08,5.08,0,0,1,1.32-3.45l1.8,1.34a2.87,2.87,0,0,0-.86,2c0,1.89,1.56,3.21,3.94,3.21s3.91-1.29,3.91-3.14a4,4,0,0,0-1-2.43l1.82-1.12a5.87,5.87,0,0,1,1.44,3.84C49.93,192.28,47.68,194.76,43.77,194.76Z"/><path class="cls-3" d="M45.66,182.73H40.05v1.68H38l-.12-1.82-3.21-.34V180h3.21v-3h2.19v3h5.61c1.39,0,2.07-.53,2.07-1.66a3.21,3.21,0,0,0-.27-1.22l2-.48a7.41,7.41,0,0,1,.43,2.4C49.93,181.72,48.21,182.73,45.66,182.73Z"/><path class="cls-3" d="M34.24,174.79a1.71,1.71,0,1,1,1.56-1.71A1.59,1.59,0,0,1,34.24,174.79Zm3.62-.31v-2.76H49.65v2.76Z"/><path class="cls-3" d="M37.86,169.65v-2.8L44,165c1.15-.31,2.35-.67,3.55-1v-.1c-1.2-.33-2.4-.67-3.55-1L37.86,161v-2.66l11.79,4v3.19Z"/><path class="cls-3" d="M34.24,156.62a1.71,1.71,0,1,1,1.56-1.7A1.59,1.59,0,0,1,34.24,156.62Zm3.62-.31v-2.76H49.65v2.76Z"/><path class="cls-3" d="M45.66,149.61H40.05v1.68H38l-.12-1.82-3.21-.34v-2.3h3.21v-3h2.19v3h5.61c1.39,0,2.07-.53,2.07-1.66a3.21,3.21,0,0,0-.27-1.22l2-.48a7.41,7.41,0,0,1,.43,2.4C49.93,148.6,48.21,149.61,45.66,149.61Z"/><path class="cls-3" d="M34.24,141.67A1.71,1.71,0,1,1,35.8,140,1.59,1.59,0,0,1,34.24,141.67Zm3.62-.31V138.6H49.65v2.76Z"/><path class="cls-3" d="M43.77,135.84c-3.84,0-6.2-2.67-6.2-5.43,0-3.19,2.31-4.87,5.6-4.87a6.6,6.6,0,0,1,1.34.12v7.49a3.38,3.38,0,0,0,3.29-3.48,4.89,4.89,0,0,0-.87-2.74l1.73-.93a7.35,7.35,0,0,1,1.27,4C49.93,133.29,47.65,135.84,43.77,135.84Zm-1.13-7.9c-1.83,0-2.93.79-2.93,2.4,0,1.39,1,2.59,2.93,2.83Z"/><path class="cls-3" d="M48.3,124.08l-1.77-1.3a5.25,5.25,0,0,0,1.32-3.26c0-1.27-.6-1.88-1.42-1.88-1,0-1.42,1.28-1.9,2.53-.57,1.56-1.46,3.31-3.43,3.31s-3.53-1.66-3.53-4.3A6.39,6.39,0,0,1,39,115.27l1.68,1.27a4.41,4.41,0,0,0-1,2.59c0,1.18.55,1.73,1.3,1.73.93,0,1.29-1.18,1.75-2.45.6-1.61,1.37-3.38,3.58-3.38,2,0,3.64,1.61,3.64,4.58A7.44,7.44,0,0,1,48.3,124.08Z"/><path class="cls-11" d="M124.13,260.2a6.42,6.42,0,0,1-2.52.46,6.57,6.57,0,0,1-6.29-4c-3.38-.6-5.61-3.56-5.61-8.09,0-5.07,2.83-8.07,6.91-8.07s6.94,3,6.94,8.07c0,4.37-2.09,7.29-5.28,8a4,4,0,0,0,3.65,1.81,5.74,5.74,0,0,0,1.7-.24Zm-7.51-5.71c2.47,0,4.06-2.26,4.06-5.93,0-3.51-1.59-5.64-4.06-5.64s-4.06,2.13-4.06,5.64C112.56,252.23,114.15,254.49,116.62,254.49Z"/><path class="cls-11" d="M126.34,252.09v-7.4h2.76v7c0,1.94.55,2.66,1.82,2.66,1,0,1.73-.48,2.62-1.63v-8.07h2.76v11.79H134l-.21-1.73h-.07a4.84,4.84,0,0,1-3.8,2C127.44,256.77,126.34,255.06,126.34,252.09Z"/><path class="cls-11" d="M139.18,253.31c0-2.52,2.09-3.84,6.94-4.37-.05-1.25-.56-2.3-2.16-2.3a6.76,6.76,0,0,0-3.32,1.15l-1-1.85a9.23,9.23,0,0,1,4.84-1.53c2.93,0,4.4,1.8,4.4,5.08v7H146.6l-.2-1.3h-.09a5.75,5.75,0,0,1-3.65,1.59A3.3,3.3,0,0,1,139.18,253.31Zm6.94,0v-2.64c-3.22.41-4.28,1.25-4.28,2.42s.72,1.52,1.71,1.52A3.74,3.74,0,0,0,146.12,253.31Z"/><path class="cls-11" d="M152.19,253.45V239.53H155V253.6c0,.67.31.91.6.91a1.59,1.59,0,0,0,.43,0l.36,2.07a3.87,3.87,0,0,1-1.46.24C152.91,256.77,152.19,255.49,152.19,253.45Z"/><path class="cls-11" d="M158.38,241.07a1.71,1.71,0,1,1,1.7,1.56A1.58,1.58,0,0,1,158.38,241.07Zm.31,3.62h2.76v11.79h-2.76Z"/><path class="cls-11" d="M165.39,252.49v-5.61h-1.68v-2.07l1.82-.12.34-3.21h2.3v3.21h3v2.19h-3v5.61c0,1.4.53,2.07,1.66,2.07a3.21,3.21,0,0,0,1.22-.27l.48,2a7.69,7.69,0,0,1-2.4.43C166.4,256.77,165.39,255,165.39,252.49Z"/><path class="cls-11" d="M172.9,261.09l.5-2.16a3.05,3.05,0,0,0,.84.17,2.48,2.48,0,0,0,2.36-2l.21-.74-4.63-11.65H175l2,5.79c.33,1,.67,2.21,1,3.31h.1c.28-1.08.6-2.26.88-3.31l1.78-5.79h2.66L179.21,257c-1,2.66-2.21,4.32-4.77,4.32A4.69,4.69,0,0,1,172.9,261.09Z"/><path class="cls-11" d="M190.56,240.78h3.15l2.78,7.68c.34,1,.67,2,1,3.07h.1c.33-1,.64-2.08,1-3.07l2.71-7.68h3.17v15.7h-2.57V249.3c0-1.46.22-3.55.36-5h-.09L200.88,248,198.32,255h-1.66L194.07,248l-1.25-3.65h-.1c.12,1.44.36,3.53.36,5v7.18h-2.52Z"/><path class="cls-11" d="M207.43,250.6c0-3.94,2.67-6.19,5.6-6.19s5.61,2.25,5.61,6.19-2.66,6.17-5.61,6.17S207.43,254.51,207.43,250.6Zm8.38,0c0-2.38-1.05-3.94-2.78-3.94s-2.76,1.56-2.76,3.94,1,3.91,2.76,3.91S215.81,253,215.81,250.6Z"/><path class="cls-11" d="M220.66,250.6c0-3.84,2.42-6.19,5-6.19a4.35,4.35,0,0,1,3.1,1.29l-.1-1.89v-4.28h2.76v17h-2.28l-.19-1.27h-.1a4.91,4.91,0,0,1-3.33,1.56C222.56,256.77,220.66,254.49,220.66,250.6Zm8,2.57v-5.5a3.5,3.5,0,0,0-2.4-1c-1.51,0-2.74,1.41-2.74,3.88s1,3.92,2.67,3.92A3.18,3.18,0,0,0,228.65,253.17Z"/><path class="cls-11" d="M234.15,250.6c0-3.84,2.66-6.19,5.42-6.19,3.19,0,4.87,2.3,4.87,5.59a5.89,5.89,0,0,1-.12,1.34h-7.48a3.37,3.37,0,0,0,3.48,3.29,4.93,4.93,0,0,0,2.73-.86l.94,1.72a7.41,7.41,0,0,1-4,1.28C236.69,256.77,234.15,254.49,234.15,250.6Zm7.89-1.13c0-1.82-.79-2.93-2.4-2.93-1.39,0-2.59,1-2.83,2.93Z"/><path class="cls-11" d="M247.08,253.45V239.53h2.76V253.6c0,.67.31.91.6.91a1.56,1.56,0,0,0,.43,0l.36,2.07a3.79,3.79,0,0,1-1.46.24C247.8,256.77,247.08,255.49,247.08,253.45Z"/><path class="cls-11" d="M257.21,244.69H260l1.42,6.12c.24,1.13.41,2.24.63,3.39h.09c.22-1.15.46-2.28.75-3.39l1.53-6.12h2.52l1.56,6.12c.29,1.13.53,2.24.79,3.39h.1c.22-1.15.41-2.26.62-3.39l1.42-6.12H274l-3,11.79h-3.29l-1.36-5.5c-.27-1.1-.46-2.18-.72-3.43h-.1c-.22,1.25-.43,2.35-.7,3.46l-1.34,5.47h-3.17Z"/><path class="cls-11" d="M276,241.07a1.71,1.71,0,1,1,1.7,1.56A1.58,1.58,0,0,1,276,241.07Zm.31,3.62h2.76v11.79h-2.76Z"/><path class="cls-11" d="M283,252.49v-5.61h-1.68v-2.07l1.83-.12.33-3.21h2.31v3.21h3v2.19h-3v5.61c0,1.4.53,2.07,1.65,2.07a3.3,3.3,0,0,0,1.23-.27l.48,2a7.74,7.74,0,0,1-2.4.43C284,256.77,283,255,283,252.49Z"/><path class="cls-11" d="M291.29,239.53h2.76v4.37l-.1,2.28a5.43,5.43,0,0,1,3.77-1.77c2.52,0,3.63,1.7,3.63,4.68v7.39h-2.76v-7c0-1.95-.56-2.67-1.85-2.67-1,0-1.71.51-2.69,1.47v8.23h-2.76Z"/><path class="cls-11" d="M114.33,283.26l1.63-1.89a6.27,6.27,0,0,0,4.08,1.77c1.78,0,2.74-.79,2.74-2s-1-1.71-2.43-2.31l-2.16-.93a4.54,4.54,0,0,1-3.17-4.18c0-2.5,2.21-4.42,5.28-4.42a6.92,6.92,0,0,1,4.83,2l-1.42,1.77a5.11,5.11,0,0,0-3.41-1.34c-1.48,0-2.47.69-2.47,1.85s1.2,1.68,2.5,2.2l2.13.89c1.85.79,3.17,2,3.17,4.25,0,2.54-2.11,4.66-5.64,4.66A8.11,8.11,0,0,1,114.33,283.26Z"/><path class="cls-11" d="M128.25,268.33H131v4.37l-.1,2.28a5.43,5.43,0,0,1,3.77-1.77c2.52,0,3.63,1.7,3.63,4.68v7.39h-2.77v-7c0-1.95-.55-2.67-1.84-2.67-1,0-1.71.51-2.69,1.47v8.23h-2.76Z"/><path class="cls-11" d="M141.33,269.87a1.71,1.71,0,1,1,1.7,1.56A1.58,1.58,0,0,1,141.33,269.87Zm.31,3.62h2.76v11.79h-2.76Z"/><path class="cls-11" d="M161.22,285.14a7.66,7.66,0,0,1-2.42.43c-2.71,0-3.72-1.73-3.72-4.28v-5.61h-3.91v9.6h-2.76v-9.6h-1.59v-2.07l1.59-.12v-1.22c0-2.45,1.13-4.22,3.91-4.22a6.12,6.12,0,0,1,2.16.4l-.53,2.07a3.29,3.29,0,0,0-1.29-.29c-1,0-1.49.62-1.49,2v1.27h4.05l.34-3.21h2.28v3.21h3v2.19h-3v5.61c0,1.4.55,2.07,1.68,2.07a3.21,3.21,0,0,0,1.22-.27Z"/><path class="cls-11" d="M161.85,278.22h5.71v2h-5.71Z"/><path class="cls-11" d="M170.56,269.58h2.78v13.35h6.53v2.35h-9.31Z"/><path class="cls-11" d="M181.29,279.4c0-3.84,2.66-6.19,5.42-6.19,3.2,0,4.87,2.3,4.87,5.59a6.64,6.64,0,0,1-.11,1.34H184a3.37,3.37,0,0,0,3.48,3.29,4.93,4.93,0,0,0,2.73-.86l.94,1.72a7.41,7.41,0,0,1-4,1.28C183.83,285.57,181.29,283.29,181.29,279.4Zm7.89-1.13c0-1.82-.79-2.93-2.4-2.93-1.39,0-2.59,1-2.83,2.93Z"/><path class="cls-11" d="M207.43,285.14a7.78,7.78,0,0,1-2.43.43c-2.71,0-3.72-1.73-3.72-4.28v-5.61h-3.91v9.6h-2.76v-9.6H193v-2.07l1.59-.12v-1.22c0-2.45,1.13-4.22,3.91-4.22a6.12,6.12,0,0,1,2.16.4l-.53,2.07a3.29,3.29,0,0,0-1.29-.29c-1,0-1.49.62-1.49,2v1.27h4l.34-3.21H204v3.21h3v2.19h-3v5.61c0,1.4.55,2.07,1.68,2.07a3.3,3.3,0,0,0,1.23-.27Z"/><path class="cls-11" d="M213.5,283.26l1.63-1.89a6.27,6.27,0,0,0,4.08,1.77c1.77,0,2.73-.79,2.73-2s-1-1.71-2.42-2.31l-2.16-.93a4.53,4.53,0,0,1-3.17-4.18c0-2.5,2.21-4.42,5.28-4.42a6.92,6.92,0,0,1,4.83,2l-1.42,1.77a5.11,5.11,0,0,0-3.41-1.34c-1.49,0-2.47.69-2.47,1.85s1.2,1.68,2.5,2.2l2.13.89c1.85.79,3.17,2,3.17,4.25,0,2.54-2.11,4.66-5.64,4.66A8.09,8.09,0,0,1,213.5,283.26Z"/><path class="cls-11" d="M226.65,279.4c0-3.84,2.66-6.19,5.42-6.19,3.19,0,4.87,2.3,4.87,5.59a5.89,5.89,0,0,1-.12,1.34h-7.48a3.37,3.37,0,0,0,3.48,3.29,4.93,4.93,0,0,0,2.73-.86l.94,1.72a7.41,7.41,0,0,1-4,1.28C229.19,285.57,226.65,283.29,226.65,279.4Zm7.89-1.13c0-1.82-.79-2.93-2.4-2.93-1.39,0-2.59,1-2.83,2.93Z"/><path class="cls-11" d="M238.82,279.4a5.81,5.81,0,0,1,5.9-6.19,5.08,5.08,0,0,1,3.46,1.32l-1.35,1.8a2.84,2.84,0,0,0-2-.87c-1.89,0-3.21,1.56-3.21,3.94s1.29,3.91,3.14,3.91a4,4,0,0,0,2.43-1l1.12,1.83a5.87,5.87,0,0,1-3.84,1.44C241.29,285.57,238.82,283.31,238.82,279.4Z"/><path class="cls-11" d="M250.55,280.89v-7.4h2.76v7c0,1.94.55,2.66,1.83,2.66,1,0,1.72-.48,2.61-1.63v-8.07h2.76v11.79h-2.25l-.22-1.73H258a4.82,4.82,0,0,1-3.79,2C251.66,285.57,250.55,283.86,250.55,280.89Z"/><path class="cls-11" d="M264,273.49h2.29l.19,2.09h.09a4,4,0,0,1,3.34-2.37,3,3,0,0,1,1.34.24l-.48,2.4a3.8,3.8,0,0,0-1.22-.2c-.94,0-2.06.65-2.78,2.43v7.2H264Z"/><path class="cls-11" d="M272.65,269.87a1.71,1.71,0,1,1,1.71,1.56A1.58,1.58,0,0,1,272.65,269.87Zm.32,3.62h2.76v11.79H273Z"/><path class="cls-11" d="M279.66,281.29v-5.61H278v-2.07l1.83-.12.33-3.21h2.31v3.21h3v2.19h-3v5.61c0,1.4.53,2.07,1.65,2.07a3.3,3.3,0,0,0,1.23-.27l.48,2.05a7.74,7.74,0,0,1-2.4.43C280.67,285.57,279.66,283.84,279.66,281.29Z"/><path class="cls-11" d="M287.17,289.89l.51-2.16a2.92,2.92,0,0,0,.84.16,2.45,2.45,0,0,0,2.35-2l.22-.74-4.64-11.65h2.81l2,5.79c.34,1,.67,2.21,1,3.31h.1c.29-1.08.6-2.26.89-3.31l1.78-5.79h2.66l-4.27,12.32c-1,2.66-2.21,4.32-4.78,4.32A4.74,4.74,0,0,1,287.17,289.89Z"/><path class="cls-11" d="M519.89,242.87h-4.54v-2.35h11.86v2.35h-4.54v13.35h-2.78Z"/><path class="cls-11" d="M528.52,244.43h2.29l.19,2.09h.09a4,4,0,0,1,3.34-2.37,3,3,0,0,1,1.34.24l-.48,2.4a3.8,3.8,0,0,0-1.22-.2c-.94,0-2.06.65-2.78,2.43v7.2h-2.77Z"/><path class="cls-11" d="M536.23,253.05c0-2.52,2.09-3.84,6.94-4.37,0-1.25-.56-2.3-2.16-2.3a6.76,6.76,0,0,0-3.32,1.15l-1-1.85a9.29,9.29,0,0,1,4.85-1.53c2.93,0,4.4,1.8,4.4,5.08v7h-2.28l-.2-1.3h-.09a5.75,5.75,0,0,1-3.65,1.59A3.3,3.3,0,0,1,536.23,253.05Zm6.94,0v-2.64c-3.22.41-4.28,1.25-4.28,2.42s.72,1.52,1.71,1.52A3.74,3.74,0,0,0,543.17,253.05Z"/><path class="cls-11" d="M548.52,250.34c0-3.84,2.42-6.19,5-6.19a4.38,4.38,0,0,1,3.1,1.29l-.1-1.89v-4.28h2.76v17H557L556.8,255h-.1a4.91,4.91,0,0,1-3.33,1.56C550.41,256.51,548.52,254.23,548.52,250.34Zm8,2.57v-5.5a3.52,3.52,0,0,0-2.4-1c-1.51,0-2.74,1.41-2.74,3.88s1,3.92,2.67,3.92A3.18,3.18,0,0,0,556.51,252.91Z"/><path class="cls-11" d="M562.46,240.81a1.71,1.71,0,1,1,1.7,1.56A1.58,1.58,0,0,1,562.46,240.81Zm.31,3.62h2.76v11.79h-2.76Z"/><path class="cls-11" d="M569.47,252.23v-5.61h-1.68v-2.07l1.82-.12.34-3.21h2.3v3.21h3v2.19h-3v5.61c0,1.4.53,2.07,1.66,2.07a3.21,3.21,0,0,0,1.22-.27l.48,2a7.63,7.63,0,0,1-2.4.43C570.48,256.51,569.47,254.78,569.47,252.23Z"/><path class="cls-11" d="M577.41,240.81a1.71,1.71,0,1,1,1.71,1.56A1.58,1.58,0,0,1,577.41,240.81Zm.31,3.62h2.76v11.79h-2.76Z"/><path class="cls-11" d="M583.24,250.34c0-3.94,2.67-6.19,5.6-6.19s5.61,2.25,5.61,6.19-2.66,6.17-5.61,6.17S583.24,254.25,583.24,250.34Zm8.38,0c0-2.38-1.06-3.94-2.78-3.94s-2.76,1.56-2.76,3.94,1,3.91,2.76,3.91S591.62,252.69,591.62,250.34Z"/><path class="cls-11" d="M597.19,244.43h2.28l.19,1.59h.1a5.46,5.46,0,0,1,3.86-1.87c2.52,0,3.62,1.7,3.62,4.68v7.39h-2.76v-7c0-1.95-.55-2.67-1.84-2.67-1,0-1.71.51-2.69,1.47v8.23h-2.76Z"/><path class="cls-11" d="M610,253.05c0-2.52,2.09-3.84,6.94-4.37-.05-1.25-.55-2.3-2.16-2.3a6.73,6.73,0,0,0-3.31,1.15l-1-1.85a9.29,9.29,0,0,1,4.85-1.53c2.93,0,4.39,1.8,4.39,5.08v7h-2.28l-.19-1.3h-.1a5.71,5.71,0,0,1-3.65,1.59A3.3,3.3,0,0,1,610,253.05Zm6.94,0v-2.64c-3.22.41-4.27,1.25-4.27,2.42s.72,1.52,1.7,1.52A3.74,3.74,0,0,0,616.94,253.05Z"/><path class="cls-11" d="M623,253.19V239.27h2.76v14.07c0,.67.31.91.6.91a1.56,1.56,0,0,0,.43-.05l.36,2.07a3.79,3.79,0,0,1-1.46.24C623.73,256.51,623,255.23,623,253.19Z"/><path class="cls-11" d="M648.16,259.94a6.42,6.42,0,0,1-2.52.46,6.53,6.53,0,0,1-6.28-4c-3.39-.6-5.62-3.56-5.62-8.09,0-5.07,2.83-8.07,6.91-8.07s6.94,3,6.94,8.07c0,4.37-2.09,7.3-5.28,8a4,4,0,0,0,3.65,1.81,5.74,5.74,0,0,0,1.7-.24Zm-7.51-5.71c2.47,0,4.06-2.26,4.06-5.93,0-3.51-1.59-5.64-4.06-5.64s-4,2.13-4,5.64C636.6,252,638.18,254.23,640.65,254.23Z"/><path class="cls-11" d="M650.37,251.83v-7.4h2.76v7c0,1.94.55,2.66,1.83,2.66,1,0,1.72-.48,2.61-1.63v-8.07h2.76v11.79h-2.25l-.22-1.73h-.07a4.8,4.8,0,0,1-3.79,2C651.48,256.51,650.37,254.8,650.37,251.83Z"/><path class="cls-11" d="M663.21,253.05c0-2.52,2.09-3.84,6.94-4.37,0-1.25-.55-2.3-2.16-2.3a6.73,6.73,0,0,0-3.31,1.15l-1-1.85a9.23,9.23,0,0,1,4.85-1.53c2.92,0,4.39,1.8,4.39,5.08v7h-2.28l-.19-1.3h-.1a5.75,5.75,0,0,1-3.65,1.59A3.3,3.3,0,0,1,663.21,253.05Zm6.94,0v-2.64c-3.22.41-4.27,1.25-4.27,2.42s.72,1.52,1.7,1.52A3.74,3.74,0,0,0,670.15,253.05Z"/><path class="cls-11" d="M676.22,253.19V239.27H679v14.07c0,.67.31.91.6.91a1.56,1.56,0,0,0,.43-.05l.36,2.07a3.79,3.79,0,0,1-1.46.24C676.94,256.51,676.22,255.23,676.22,253.19Z"/><path class="cls-11" d="M682.41,240.81a1.71,1.71,0,1,1,1.71,1.56A1.58,1.58,0,0,1,682.41,240.81Zm.31,3.62h2.76v11.79h-2.76Z"/><path class="cls-11" d="M689.42,252.23v-5.61h-1.68v-2.07l1.82-.12.34-3.21h2.3v3.21h3v2.19h-3v5.61c0,1.4.53,2.07,1.66,2.07a3.21,3.21,0,0,0,1.22-.27l.48,2a7.63,7.63,0,0,1-2.4.43C690.43,256.51,689.42,254.78,689.42,252.23Z"/><path class="cls-11" d="M696.93,260.83l.5-2.16a3.05,3.05,0,0,0,.84.17,2.48,2.48,0,0,0,2.36-2l.21-.74-4.63-11.65H699l2,5.79c.34,1,.67,2.21,1,3.31h.1c.29-1.08.6-2.26.89-3.31l1.77-5.79h2.67l-4.28,12.32c-1,2.66-2.2,4.32-4.77,4.32A4.69,4.69,0,0,1,696.93,260.83Z"/><path class="cls-11" d="M581.62,269.32h3.15l2.78,7.68c.34,1,.67,2,1,3.07h.1c.33-1,.65-2.08,1-3.07l2.71-7.68h3.17V285H593v-7.18c0-1.46.22-3.55.36-5h-.09L592,276.5l-2.57,7.05h-1.66l-2.59-7.05-1.25-3.65h-.1c.12,1.44.36,3.53.36,5V285h-2.52Z"/><path class="cls-11" d="M598.5,279.14c0-3.94,2.66-6.19,5.59-6.19s5.61,2.25,5.61,6.19-2.66,6.17-5.61,6.17S598.5,283.05,598.5,279.14Zm8.37,0c0-2.38-1-3.94-2.78-3.94s-2.76,1.56-2.76,3.94,1,3.91,2.76,3.91S606.87,281.49,606.87,279.14Z"/><path class="cls-11" d="M611.72,279.14c0-3.84,2.42-6.19,5-6.19a4.35,4.35,0,0,1,3.1,1.29l-.1-1.89v-4.28h2.76V285h-2.28l-.19-1.27h-.1a4.91,4.91,0,0,1-3.33,1.56C613.62,285.31,611.72,283,611.72,279.14Zm8,2.57v-5.5a3.5,3.5,0,0,0-2.4-1c-1.51,0-2.73,1.41-2.73,3.88s1,3.92,2.66,3.92A3.18,3.18,0,0,0,619.71,281.71Z"/><path class="cls-11" d="M625.21,279.14c0-3.84,2.66-6.19,5.42-6.19,3.2,0,4.87,2.3,4.87,5.59a6.64,6.64,0,0,1-.11,1.34H627.9a3.37,3.37,0,0,0,3.48,3.29,4.93,4.93,0,0,0,2.73-.86l.94,1.72a7.41,7.41,0,0,1-4,1.28C627.75,285.31,625.21,283,625.21,279.14ZM633.1,278c0-1.82-.79-2.93-2.4-2.93-1.39,0-2.59,1-2.83,2.93Z"/><path class="cls-11" d="M638.14,282V268.07h2.76v14.07c0,.67.32.91.6.91a1.66,1.66,0,0,0,.44-.05l.36,2.07a3.89,3.89,0,0,1-1.47.24C638.86,285.31,638.14,284,638.14,282Z"/><path class="cls-11" d="M332.37,231.54l1.77-2a6.77,6.77,0,0,0,4.42,1.92c1.92,0,3-.86,3-2.18s-1.09-1.85-2.62-2.5l-2.34-1c-1.67-.7-3.44-2-3.44-4.53,0-2.7,2.4-4.78,5.72-4.78a7.5,7.5,0,0,1,5.23,2.16l-1.53,1.92a5.56,5.56,0,0,0-3.7-1.45c-1.61,0-2.67.75-2.67,2s1.3,1.82,2.7,2.39l2.31,1c2,.86,3.44,2.13,3.44,4.6,0,2.76-2.29,5-6.11,5A8.8,8.8,0,0,1,332.37,231.54Z"/><path class="cls-11" d="M346.62,227.36c0-4.16,2.88-6.71,5.87-6.71,3.46,0,5.28,2.49,5.28,6.06a6.77,6.77,0,0,1-.13,1.45h-8.11a3.65,3.65,0,0,0,3.77,3.56,5.29,5.29,0,0,0,3-.93l1,1.87a8,8,0,0,1-4.37,1.38C349.37,234,346.62,231.57,346.62,227.36Zm8.55-1.23c0-2-.86-3.17-2.6-3.17-1.51,0-2.81,1.12-3.07,3.17Z"/><path class="cls-11" d="M359.8,227.36a6.3,6.3,0,0,1,6.4-6.71,5.49,5.49,0,0,1,3.74,1.43L368.48,224a3.09,3.09,0,0,0-2.13-.94c-2.05,0-3.48,1.69-3.48,4.27s1.4,4.24,3.4,4.24a4.27,4.27,0,0,0,2.63-1.1l1.22,2A6.36,6.36,0,0,1,366,234C362.48,234,359.8,231.6,359.8,227.36Z"/><path class="cls-11" d="M372.51,229v-8h3v7.62c0,2.1.6,2.89,2,2.89,1.12,0,1.87-.53,2.83-1.77V221h3v12.77h-2.44l-.24-1.88h-.07a5.21,5.21,0,0,1-4.11,2.19C373.71,234,372.51,232.19,372.51,229Z"/><path class="cls-11" d="M387.1,221h2.47l.21,2.26h.1a4.34,4.34,0,0,1,3.61-2.57,3.29,3.29,0,0,1,1.46.26l-.52,2.6a4.17,4.17,0,0,0-1.33-.21c-1,0-2.23.7-3,2.63v7.8h-3Z"/><path class="cls-11" d="M395.7,227.36c0-4.16,2.89-6.71,5.88-6.71,3.46,0,5.28,2.49,5.28,6.06a6.77,6.77,0,0,1-.13,1.45h-8.11a3.64,3.64,0,0,0,3.77,3.56,5.31,5.31,0,0,0,3-.93l1,1.87A8.06,8.06,0,0,1,402,234C398.46,234,395.7,231.57,395.7,227.36Zm8.56-1.23c0-2-.86-3.17-2.6-3.17-1.51,0-2.81,1.12-3.07,3.17Z"/><path class="cls-11" d="M414,231.54l1.77-2a6.77,6.77,0,0,0,4.42,1.92c1.92,0,3-.86,3-2.18s-1.09-1.85-2.63-2.5l-2.34-1c-1.66-.7-3.43-2-3.43-4.53,0-2.7,2.39-4.78,5.72-4.78a7.5,7.5,0,0,1,5.23,2.16l-1.54,1.92a5.52,5.52,0,0,0-3.69-1.45c-1.61,0-2.68.75-2.68,2s1.3,1.82,2.71,2.39l2.31,1c2,.86,3.43,2.13,3.43,4.6,0,2.76-2.28,5-6.11,5A8.79,8.79,0,0,1,414,231.54Z"/><path class="cls-11" d="M429.35,216.72h4.55c5.2,0,8.27,2.81,8.27,8.43s-3.07,8.58-8.12,8.58h-4.7Zm4.34,14.56c3.43,0,5.38-1.95,5.38-6.13s-1.95-6-5.38-6h-1.33v12.11Z"/><path class="cls-11" d="M445.6,216.72h3v14.46h7.08v2.55H445.6Z"/><path class="cls-11" d="M457,225.28c0-5.57,3.48-8.87,7.77-8.87a6.74,6.74,0,0,1,4.92,2.16l-1.61,2a4.43,4.43,0,0,0-3.23-1.48c-2.78,0-4.76,2.34-4.76,6.16s1.82,6.21,4.68,6.21a4.84,4.84,0,0,0,3.64-1.74l1.62,1.9a6.89,6.89,0,0,1-5.36,2.47C460.34,234,457,230.92,457,225.28Z"/><path class="cls-3" d="M679.12,329.53h3.41l3,8.32c.36,1.07.72,2.21,1.09,3.33h.1c.37-1.12.71-2.26,1.07-3.33l2.94-8.32h3.43v17H691.4v-7.77c0-1.59.23-3.85.39-5.41h-.11l-1.38,3.95L687.52,345h-1.79l-2.81-7.65-1.35-3.95h-.11c.14,1.56.39,3.82.39,5.41v7.77h-2.73Z"/><path class="cls-3" d="M697.56,343.1c0-2.73,2.26-4.16,7.51-4.73-.05-1.35-.6-2.5-2.34-2.5a7.36,7.36,0,0,0-3.59,1.25l-1.09-2a10.05,10.05,0,0,1,5.25-1.66c3.18,0,4.76,2,4.76,5.51v7.56h-2.47l-.21-1.4h-.1a6.21,6.21,0,0,1-3.95,1.72A3.57,3.57,0,0,1,697.56,343.1Zm7.51,0v-2.86c-3.48.44-4.63,1.35-4.63,2.63s.78,1.64,1.85,1.64A4,4,0,0,0,705.07,343.1Z"/><path class="cls-3" d="M711.31,329.84a1.85,1.85,0,1,1,1.85,1.69A1.72,1.72,0,0,1,711.31,329.84Zm.34,3.93h3v12.76h-3Z"/><path class="cls-3" d="M718.46,333.77h2.47l.21,1.71h.1a6,6,0,0,1,4.19-2c2.73,0,3.93,1.84,3.93,5.07v8h-3v-7.61c0-2.11-.6-2.89-2-2.89-1.11,0-1.84.55-2.91,1.59v8.91h-3Z"/><path class="cls-3" d="M733.46,342.22v-6.09h-1.82V333.9l2-.13.36-3.49h2.5v3.49h3.25v2.36h-3.25v6.09c0,1.51.57,2.23,1.79,2.23a3.75,3.75,0,0,0,1.33-.28l.52,2.21a8.27,8.27,0,0,1-2.6.47C734.56,346.85,733.46,345,733.46,342.22Z"/><path class="cls-3" d="M741.16,340.16c0-4.16,2.89-6.7,5.88-6.7,3.45,0,5.27,2.49,5.27,6.05a6.81,6.81,0,0,1-.13,1.46h-8.11a3.66,3.66,0,0,0,3.77,3.56,5.43,5.43,0,0,0,3-.93l1,1.87a8.11,8.11,0,0,1-4.37,1.38C743.92,346.85,741.16,344.38,741.16,340.16Zm8.55-1.22c0-2-.85-3.17-2.6-3.17-1.5,0-2.8,1.12-3.06,3.17Z"/><path class="cls-3" d="M755.17,333.77h2.47l.21,1.71H758a5.94,5.94,0,0,1,4.18-2c2.73,0,3.93,1.84,3.93,5.07v8h-3v-7.61c0-2.11-.6-2.89-2-2.89-1.12,0-1.85.55-2.92,1.59v8.91h-3Z"/><path class="cls-3" d="M769.06,343.1c0-2.73,2.26-4.16,7.51-4.73-.05-1.35-.6-2.5-2.34-2.5a7.36,7.36,0,0,0-3.59,1.25l-1.09-2a10.05,10.05,0,0,1,5.25-1.66c3.18,0,4.76,2,4.76,5.51v7.56h-2.47l-.21-1.4h-.1a6.21,6.21,0,0,1-3.95,1.72A3.57,3.57,0,0,1,769.06,343.1Zm7.51,0v-2.86c-3.48.44-4.63,1.35-4.63,2.63s.78,1.64,1.85,1.64A4,4,0,0,0,776.57,343.1Z"/><path class="cls-3" d="M783.15,333.77h2.47l.21,1.71h.1a6,6,0,0,1,4.19-2c2.73,0,3.92,1.84,3.92,5.07v8h-3v-7.61c0-2.11-.59-2.89-2-2.89-1.12,0-1.84.55-2.91,1.59v8.91h-3Z"/><path class="cls-3" d="M796.88,340.16a6.29,6.29,0,0,1,6.39-6.7,5.5,5.5,0,0,1,3.75,1.43l-1.46,1.95a3.09,3.09,0,0,0-2.13-.94c-2,0-3.48,1.69-3.48,4.26s1.4,4.24,3.4,4.24a4.25,4.25,0,0,0,2.63-1.09l1.22,2a6.37,6.37,0,0,1-4.16,1.56C799.56,346.85,796.88,344.4,796.88,340.16Z"/><path class="cls-3" d="M808.27,340.16c0-4.16,2.88-6.7,5.87-6.7,3.46,0,5.28,2.49,5.28,6.05a6.81,6.81,0,0,1-.13,1.46h-8.11a3.65,3.65,0,0,0,3.77,3.56,5.37,5.37,0,0,0,3-.93l1,1.87a8.14,8.14,0,0,1-4.37,1.38C811,346.85,808.27,344.38,808.27,340.16Zm8.55-1.22c0-2-.86-3.17-2.6-3.17-1.51,0-2.81,1.12-3.07,3.17Z"/></g></g></g></svg>